<mxfile host="app.diagrams.net" modified="2023-04-18T15:00:21.522Z" agent="Mozilla/5.0 (Windows NT 10.0; Win64; x64) AppleWebKit/537.36 (KHTML, like Gecko) Chrome/97.0.4692.99 Safari/537.36" version="21.1.2" etag="qqmUXttTtFb0l1cEV8g0" type="github">
  <diagram name="第 1 页" id="ipNu82i0-kDr4lVcq5RR">
    <mxGraphModel>
      <root>
        <mxCell id="0" />
        <mxCell id="1" parent="0" />
      </root>
    </mxGraphModel>
  </diagram>
</mxfile>
